<?xml version="1.0" encoding="utf-8"?>
<!-- Generator: Adobe Illustrator 18.1.0, SVG Export Plug-In . SVG Version: 6.00 Build 0)  -->
<!DOCTYPE svg PUBLIC "-//W3C//DTD SVG 1.1//EN" "http://www.w3.org/Graphics/SVG/1.1/DTD/svg11.dtd">
<svg version="1.1" id="Layer_1" xmlns="http://www.w3.org/2000/svg" xmlns:xlink="http://www.w3.org/1999/xlink" x="0px" y="0px"
	 viewBox="0 0 57.7 25" enable-background="new 0 0 57.7 25" xml:space="preserve">
<g>
	<rect x="2.3" y="20" fill="#FFFFFF" width="1.3" height="1.8"/>
	<rect x="8.7" y="20" fill="#CCCCCC" width="1.3" height="1.8"/>
	<rect x="13" y="20" fill="#CCCCCC" width="1.3" height="1.8"/>
	<rect x="15.3" y="20" fill="#FFFFFF" width="1.3" height="1.8"/>
	<rect x="0" y="20" fill="#FFFFFF" width="1.3" height="1.8"/>
	<rect x="4.6" y="20" fill="#FFFFFF" width="3.1" height="1.8"/>
	<rect x="17.6" y="20" fill="#CCCCCC" width="3.1" height="1.8"/>
	<rect x="21.7" y="20" fill="#FFFFFF" width="3.1" height="1.8"/>
	<rect x="25.7" y="20" fill="#FFFFFF" width="3.1" height="1.8"/>
	<rect x="41.8" y="20" fill="#FFFFFF" width="1.3" height="1.8"/>
	<rect x="44.1" y="20" fill="#CCCCCC" width="1.3" height="1.8"/>
	<rect x="46.4" y="20" fill="#CCCCCC" width="3.1" height="1.8"/>
	<rect x="50.5" y="20" fill="#FFFFFF" width="3.1" height="1.8"/>
	<rect x="54.6" y="20" fill="#FFFFFF" width="3.1" height="1.8"/>
	<rect x="31.7" y="20" fill="#CCCCCC" width="3.1" height="1.8"/>
	<rect x="35.8" y="20" fill="#FFFFFF" width="3.1" height="1.8"/>
	<g>
		<path fill="#FFFFFF" d="M0,19V0.4h9.2v3.2H3.4v4.5h5.6v3.2H3.4V19H0z"/>
		<path fill="#FFFFFF" d="M9.9,19v-3.2l6.4-6.2c1.4-1.3,2-2.4,2-3.7c0-1.6-1.1-2.8-2.7-2.8c-1.8,0-2.7,1.2-2.7,3.6H9.7
			c0-0.3,0-0.4,0-0.6c0-3.5,2.6-6.2,6-6.2c3.3,0,5.9,2.7,5.9,6.1c0,1.6-0.5,3-1.6,4.3c-0.2,0.3-0.4,0.5-0.7,0.8
			c-0.5,0.6-0.9,1-1.1,1.2l-3.7,3.4h7.1V19H9.9z"/>
		<path fill="#FFFFFF" d="M41.8,19V5.4L33.6,19h-3.4V5.4L21.9,19h-4.1L29.6,0.4h4V13l7.5-12.6h4V19H41.8z"/>
		<path fill="#FFFFFF" d="M45.9,19v-3.2l6.4-6.2c1.4-1.3,2-2.4,2-3.7c0-1.6-1.1-2.8-2.7-2.8c-1.8,0-2.7,1.2-2.7,3.6h-3.2
			c0-0.3,0-0.4,0-0.6c0-3.5,2.6-6.2,6-6.2c3.3,0,5.9,2.7,5.9,6.1c0,1.6-0.5,3-1.6,4.3c-0.2,0.3-0.4,0.5-0.7,0.8
			c-0.5,0.6-0.9,1-1.1,1.2l-3.7,3.4h7.1V19H45.9z"/>
	</g>
</g>
</svg>
